# xmcd
#
# Track frame offsets:
#	150
#	29725
#	61797
#	97727
#	134632
#	172360
#	206007
#
# Disc length: 3149 seconds
#
# Revision: 1
# Processed by: cddbd v1.4PL0 Copyright (c) Steve Scherf et al.
# Submitted via: EasyCDDAExtractor 5.0.7
#
DISCID=660c4b07
DTITLE=Various Artist - Doan Cuoi Tinh Yeu
DYEAR=1900
DGENRE=VongCo
TTITLE0=Vu Linh and Nhoc Huyen - Thuong Ve Mien Trung
TTITLE1=Chau Thanh and Thanh Thuy - Giot Buon Khong Ten
TTITLE2=Linh Tam and Thanh Thanh Tam - Ve Dau Mai Toc Nguoi Thuong
TTITLE3=Chau Thanh and Thoai My - Doan Cuoi Tinh Yeu
TTITLE4=Hoai Thanh and My Chau - Tra Lai Thoi Gian
TTITLE5=Hoai Thanh and Thanh Hang - Vinh Biet Nhau
TTITLE6=Trong Huu and Phuong Lien - Tinh Tham Duyen Que
EXTD=
EXTT0=
EXTT1=
EXTT2=
EXTT3=
EXTT4=
EXTT5=
EXTT6=
PLAYORDER=
